<?xml version="1.0" encoding="UTF-8" standalone="no"?>
<!-- Created with Inkscape (http://www.inkscape.org/) -->

<svg
   width="101.18134mm"
   height="45.823776mm"
   viewBox="0 0 101.18134 45.823775"
   version="1.1"
   id="svg3653"
   xml:space="preserve"
   xmlns="http://www.w3.org/2000/svg"
   xmlns:svg="http://www.w3.org/2000/svg"
   xmlns:rdf="http://www.w3.org/1999/02/22-rdf-syntax-ns#"
   xmlns:cc="http://creativecommons.org/ns#"
   xmlns:dc="http://purl.org/dc/elements/1.1/"><defs
     id="defs3647"><clipPath
       clipPathUnits="userSpaceOnUse"
       id="clipPath11"><path
         d="M -1021,-463 H 1794 V 1233 H -1021 Z"
         transform="translate(1.1363638e-5,1.3671365e-4)"
         id="path11" /></clipPath><clipPath
       clipPathUnits="userSpaceOnUse"
       id="clipPath14"><path
         d="M -1021,-463 H 1794 V 1233 H -1021 Z"
         transform="translate(1.1363638e-5,-1.1249547e-4)"
         id="path14" /></clipPath><clipPath
       clipPathUnits="userSpaceOnUse"
       id="clipPath17"><path
         d="M -1021,-463 H 1794 V 1233 H -1021 Z"
         transform="translate(1.1363638e-5,-2.0795456e-5)"
         id="path17" /></clipPath><clipPath
       clipPathUnits="userSpaceOnUse"
       id="clipPath24"><path
         d="m 77.02,76.52 h 979.22 V 510.74016 H 77.02 Z"
         id="path24" /></clipPath><clipPath
       clipPathUnits="userSpaceOnUse"
       id="clipPath26"><path
         d="m 77.02,76.52 h 979.22 V 510.74016 H 77.02 Z"
         id="path26" /></clipPath><clipPath
       clipPathUnits="userSpaceOnUse"
       id="clipPath28"><path
         d="m 77.02,76.52 h 979.22 V 510.74016 H 77.02 Z"
         id="path28" /></clipPath><clipPath
       clipPathUnits="userSpaceOnUse"
       id="clipPath30"><path
         d="m 77.02,76.52 h 979.22 V 510.74016 H 77.02 Z"
         id="path30" /></clipPath><clipPath
       clipPathUnits="userSpaceOnUse"
       id="clipPath32"><path
         d="m 77.02,76.52 h 979.22 V 510.74016 H 77.02 Z"
         id="path32" /></clipPath><clipPath
       clipPathUnits="userSpaceOnUse"
       id="clipPath34"><path
         d="m 77.02,76.52 h 979.22 V 510.74016 H 77.02 Z"
         id="path34" /></clipPath><clipPath
       clipPathUnits="userSpaceOnUse"
       id="clipPath36"><path
         d="m 77.02,76.52 h 979.22 V 510.74016 H 77.02 Z"
         id="path36" /></clipPath></defs><metadata
     id="metadata3650"><rdf:RDF><cc:Work
         rdf:about=""><dc:format>image/svg+xml</dc:format><dc:type
           rdf:resource="http://purl.org/dc/dcmitype/StillImage" /></cc:Work></rdf:RDF></metadata><g
     id="g1"
     transform="matrix(0.26458332,0,0,0.26458335,89.731599,-92.621241)"><g
       id="g8"
       transform="matrix(0.27826349,0,0,0.26407205,-348.75779,352.3948)"><g
         id="g9"
         transform="translate(0,-42.372759)"><path
           id="path2"
           d="m 77.02,76.52 h 979.22 V 510.74016 H 77.02 Z"
           style="fill:#ffffff;fill-opacity:1;fill-rule:nonzero;stroke:none"
           transform="matrix(1.3333333,0,0,-1.3333333,0,720)" /><path
           id="path3"
           d="m 121.53,76.52 v -3.5"
           style="fill:#000000;fill-opacity:1;fill-rule:nonzero;stroke:#000000;stroke-width:0.8;stroke-linecap:butt;stroke-linejoin:round;stroke-miterlimit:10;stroke-dasharray:none;stroke-opacity:1"
           transform="matrix(1.3333333,0,0,-1.3333333,0,720)" /><text
           id="text3"
           xml:space="preserve"
           transform="matrix(1.3333333,0,0,1.3333333,152.70667,649.59833)"><tspan
             style="font-variant:normal;font-weight:normal;font-size:22px;font-family:Arial;writing-mode:lr-tb;fill:#000000;fill-opacity:1;fill-rule:nonzero;stroke:none"
             x="0"
             y="0"
             id="tspan3">0</tspan></text><path
           id="path4"
           d="m 269.89914,76.52 v -3.5"
           style="fill:#000000;fill-opacity:1;fill-rule:nonzero;stroke:#000000;stroke-width:0.8;stroke-linecap:butt;stroke-linejoin:round;stroke-miterlimit:10;stroke-dasharray:none;stroke-opacity:1"
           transform="matrix(1.3333333,0,0,-1.3333333,0,720)" /><text
           id="text4"
           xml:space="preserve"
           transform="matrix(1.3333333,0,0,1.3333333,341.19885,649.59833)"><tspan
             style="font-variant:normal;font-weight:normal;font-size:22px;font-family:Arial;writing-mode:lr-tb;fill:#000000;fill-opacity:1;fill-rule:nonzero;stroke:none"
             x="0 13.992"
             y="0"
             id="tspan4">10</tspan></text><path
           id="path5"
           d="m 418.26828,76.52 v -3.5"
           style="fill:#000000;fill-opacity:1;fill-rule:nonzero;stroke:#000000;stroke-width:0.8;stroke-linecap:butt;stroke-linejoin:round;stroke-miterlimit:10;stroke-dasharray:none;stroke-opacity:1"
           transform="matrix(1.3333333,0,0,-1.3333333,0,720)" /><text
           id="text5"
           xml:space="preserve"
           transform="matrix(1.3333333,0,0,1.3333333,539.02437,649.59833)"><tspan
             style="font-variant:normal;font-weight:normal;font-size:22px;font-family:Arial;writing-mode:lr-tb;fill:#000000;fill-opacity:1;fill-rule:nonzero;stroke:none"
             x="0 13.992"
             y="0"
             id="tspan5">20</tspan></text><path
           id="path6"
           d="m 566.63742,76.52 v -3.5"
           style="fill:#000000;fill-opacity:1;fill-rule:nonzero;stroke:#000000;stroke-width:0.8;stroke-linecap:butt;stroke-linejoin:round;stroke-miterlimit:10;stroke-dasharray:none;stroke-opacity:1"
           transform="matrix(1.3333333,0,0,-1.3333333,0,720)" /><text
           id="text6"
           xml:space="preserve"
           transform="matrix(1.3333333,0,0,1.3333333,736.84989,649.59833)"><tspan
             style="font-variant:normal;font-weight:normal;font-size:22px;font-family:Arial;writing-mode:lr-tb;fill:#000000;fill-opacity:1;fill-rule:nonzero;stroke:none"
             x="0 13.992"
             y="0"
             id="tspan6">30</tspan></text><path
           id="path7"
           d="m 715.00656,76.52 v -3.5"
           style="fill:#000000;fill-opacity:1;fill-rule:nonzero;stroke:#000000;stroke-width:0.8;stroke-linecap:butt;stroke-linejoin:round;stroke-miterlimit:10;stroke-dasharray:none;stroke-opacity:1"
           transform="matrix(1.3333333,0,0,-1.3333333,0,720)" /><text
           id="text7"
           xml:space="preserve"
           transform="matrix(1.3333333,0,0,1.3333333,934.67541,649.59833)"><tspan
             style="font-variant:normal;font-weight:normal;font-size:22px;font-family:Arial;writing-mode:lr-tb;fill:#000000;fill-opacity:1;fill-rule:nonzero;stroke:none"
             x="0 13.992"
             y="0"
             id="tspan7">40</tspan></text><path
           id="path8"
           d="m 863.3757,76.52 v -3.5"
           style="fill:#000000;fill-opacity:1;fill-rule:nonzero;stroke:#000000;stroke-width:0.8;stroke-linecap:butt;stroke-linejoin:round;stroke-miterlimit:10;stroke-dasharray:none;stroke-opacity:1"
           transform="matrix(1.3333333,0,0,-1.3333333,0,720)" /><text
           id="text8"
           xml:space="preserve"
           transform="matrix(1.3333333,0,0,1.3333333,1132.5009,649.59833)"><tspan
             style="font-variant:normal;font-weight:normal;font-size:22px;font-family:Arial;writing-mode:lr-tb;fill:#000000;fill-opacity:1;fill-rule:nonzero;stroke:none"
             x="0 13.992"
             y="0"
             id="tspan8">50</tspan></text><path
           id="path9"
           d="m 1011.7448,76.52 v -3.5"
           style="fill:#000000;fill-opacity:1;fill-rule:nonzero;stroke:#000000;stroke-width:0.8;stroke-linecap:butt;stroke-linejoin:round;stroke-miterlimit:10;stroke-dasharray:none;stroke-opacity:1"
           transform="matrix(1.3333333,0,0,-1.3333333,0,720)" /><text
           id="text9"
           xml:space="preserve"
           transform="matrix(1.3333333,0,0,1.3333333,1330.3264,649.59833)"><tspan
             style="font-variant:normal;font-weight:normal;font-size:22px;font-family:Arial;writing-mode:lr-tb;fill:#000000;fill-opacity:1;fill-rule:nonzero;stroke:none"
             x="0 13.992"
             y="0"
             id="tspan9">60</tspan></text><text
           id="text10"
           xml:space="preserve"
           transform="matrix(1.3333333,0,0,1.3333333,681.53792,683.3275)"><tspan
             style="font-variant:normal;font-weight:normal;font-size:22px;font-family:Arial;writing-mode:lr-tb;fill:#000000;fill-opacity:1;fill-rule:nonzero;stroke:none"
             x="0 12.770125 18.886126 40.314125 53.844124 60.840126 69.420128 90.848122 102.31013"
             y="0"
             id="tspan10">Time (ms)</tspan></text><path
           id="path10"
           d="m 77.02,135.60502 h -3.5"
           style="fill:#000000;fill-opacity:1;fill-rule:nonzero;stroke:#000000;stroke-width:0.8;stroke-linecap:butt;stroke-linejoin:round;stroke-miterlimit:10;stroke-dasharray:none;stroke-opacity:1"
           transform="matrix(1.3333333,0,0,-1.3333333,0,720)" /><text
           id="text11"
           xml:space="preserve"
           transform="matrix(1.3333333,0,0,1.3333333,56.021458,550.33915)"><tspan
             style="font-variant:normal;font-weight:normal;font-size:22px;font-family:Arial;writing-mode:lr-tb;fill:#000000;fill-opacity:1;fill-rule:nonzero;stroke:none"
             x="0 13.992"
             y="0"
             id="tspan11">60</tspan></text><g
           id="g12"><path
             d="M 106,355 H 732 V 272 H 106 Z"
             style="fill:#000000;fill-opacity:1;fill-rule:nonzero;stroke:none"
             transform="matrix(0.02933333,0,0,-0.02933333,31.443333,550.33915)"
             clip-path="url(#clipPath11)"
             id="path12" /></g><path
           id="path13"
           d="m 77.02,197.64365 h -3.5"
           style="fill:#000000;fill-opacity:1;fill-rule:nonzero;stroke:#000000;stroke-width:0.8;stroke-linecap:butt;stroke-linejoin:round;stroke-miterlimit:10;stroke-dasharray:none;stroke-opacity:1"
           transform="matrix(1.3333333,0,0,-1.3333333,0,720)" /><text
           id="text13"
           xml:space="preserve"
           transform="matrix(1.3333333,0,0,1.3333333,56.021458,467.62096)"><tspan
             style="font-variant:normal;font-weight:normal;font-size:22px;font-family:Arial;writing-mode:lr-tb;fill:#000000;fill-opacity:1;fill-rule:nonzero;stroke:none"
             x="0 13.992"
             y="0"
             id="tspan13">40</tspan></text><g
           id="g15"><path
             d="M 106,355 H 732 V 272 H 106 Z"
             style="fill:#000000;fill-opacity:1;fill-rule:nonzero;stroke:none"
             transform="matrix(0.02933333,0,0,-0.02933333,31.443333,467.62096)"
             clip-path="url(#clipPath14)"
             id="path15" /></g><path
           id="path16"
           d="m 77.02,259.68229 h -3.5"
           style="fill:#000000;fill-opacity:1;fill-rule:nonzero;stroke:#000000;stroke-width:0.8;stroke-linecap:butt;stroke-linejoin:round;stroke-miterlimit:10;stroke-dasharray:none;stroke-opacity:1"
           transform="matrix(1.3333333,0,0,-1.3333333,0,720)" /><text
           id="text16"
           xml:space="preserve"
           transform="matrix(1.3333333,0,0,1.3333333,56.021458,384.90278)"><tspan
             style="font-variant:normal;font-weight:normal;font-size:22px;font-family:Arial;writing-mode:lr-tb;fill:#000000;fill-opacity:1;fill-rule:nonzero;stroke:none"
             x="0 13.992"
             y="0"
             id="tspan16">20</tspan></text><g
           id="g18"><path
             d="M 106,355 H 732 V 272 H 106 Z"
             style="fill:#000000;fill-opacity:1;fill-rule:nonzero;stroke:none"
             transform="matrix(0.02933333,0,0,-0.02933333,31.443333,384.90278)"
             clip-path="url(#clipPath17)"
             id="path18" /></g><path
           id="path19"
           d="m 77.02,321.72093 h -3.5"
           style="fill:#000000;fill-opacity:1;fill-rule:nonzero;stroke:#000000;stroke-width:0.8;stroke-linecap:butt;stroke-linejoin:round;stroke-miterlimit:10;stroke-dasharray:none;stroke-opacity:1"
           transform="matrix(1.3333333,0,0,-1.3333333,0,720)" /><text
           id="text19"
           xml:space="preserve"
           transform="matrix(1.3333333,0,0,1.3333333,74.693333,302.1846)"><tspan
             style="font-variant:normal;font-weight:normal;font-size:22px;font-family:Arial;writing-mode:lr-tb;fill:#000000;fill-opacity:1;fill-rule:nonzero;stroke:none"
             x="0"
             y="0"
             id="tspan19">0</tspan></text><path
           id="path20"
           d="m 77.02,383.75956 h -3.5"
           style="fill:#000000;fill-opacity:1;fill-rule:nonzero;stroke:#000000;stroke-width:0.8;stroke-linecap:butt;stroke-linejoin:round;stroke-miterlimit:10;stroke-dasharray:none;stroke-opacity:1"
           transform="matrix(1.3333333,0,0,-1.3333333,0,720)" /><text
           id="text20"
           xml:space="preserve"
           transform="matrix(1.3333333,0,0,1.3333333,56.026667,219.46642)"><tspan
             style="font-variant:normal;font-weight:normal;font-size:22px;font-family:Arial;writing-mode:lr-tb;fill:#000000;fill-opacity:1;fill-rule:nonzero;stroke:none"
             x="0 13.992"
             y="0"
             id="tspan20">20</tspan></text><path
           id="path21"
           d="m 77.02,445.7982 h -3.5"
           style="fill:#000000;fill-opacity:1;fill-rule:nonzero;stroke:#000000;stroke-width:0.8;stroke-linecap:butt;stroke-linejoin:round;stroke-miterlimit:10;stroke-dasharray:none;stroke-opacity:1"
           transform="matrix(1.3333333,0,0,-1.3333333,0,720)" /><text
           id="text21"
           xml:space="preserve"
           transform="matrix(1.3333333,0,0,1.3333333,56.026667,136.74823)"><tspan
             style="font-variant:normal;font-weight:normal;font-size:22px;font-family:Arial;writing-mode:lr-tb;fill:#000000;fill-opacity:1;fill-rule:nonzero;stroke:none"
             x="0 13.992"
             y="0"
             id="tspan21">40</tspan></text><path
           id="path22"
           d="m 77.02,507.83684 h -3.5"
           style="fill:#000000;fill-opacity:1;fill-rule:nonzero;stroke:#000000;stroke-width:0.8;stroke-linecap:butt;stroke-linejoin:round;stroke-miterlimit:10;stroke-dasharray:none;stroke-opacity:1"
           transform="matrix(1.3333333,0,0,-1.3333333,0,720)" /><text
           id="text22"
           xml:space="preserve"
           transform="matrix(1.3333333,0,0,1.3333333,56.026667,54.03005)"><tspan
             style="font-variant:normal;font-weight:normal;font-size:22px;font-family:Arial;writing-mode:lr-tb;fill:#000000;fill-opacity:1;fill-rule:nonzero;stroke:none"
             x="0 13.992"
             y="0"
             id="tspan22">60</tspan></text><path
           id="path23"
           d="m 121.53,168.40508 36.14272,1.34279 30.93497,1.35942 27.04769,1.40047 23.8726,1.45377 20.742,1.48163 18.17522,1.51731 15.78648,1.53404 13.99121,1.57704 12.28496,1.60149 10.91997,1.64154 9.71818,1.68098 8.62025,1.71149 7.70036,1.75065 6.914,1.79683 6.17215,1.83006 5.53417,1.86798 5.01488,1.92417 4.52526,1.97134 4.09499,2.02228 3.75374,2.09984 3.41249,2.1608 3.14542,2.25295 2.90804,2.35632 2.68548,2.46126 2.50744,2.59947 2.34423,2.74989 2.2107,2.93534 2.10684,3.169 2.01782,3.4412 1.94364,3.75929 1.89912,4.16549 1.86945,4.6453 1.88429,5.29284 1.9288,6.09867 2.04749,7.23236 2.3294,9.08296 3.13059,13.19408 6.30569,26.71563 6.7953,27.9175 1.54304,7.7969 1.42435,8.37595 1.46885,10.02869 1.94364,15.00342 2.34423,17.73633 1.42434,9.0443 1.32049,7.00814 1.27597,5.60919 1.21663,4.38257 1.17212,3.41898 1.1276,2.62451 1.0831,1.97687 1.05342,1.47243 1.02374,1.05853 1.00891,0.73064 1.00891,0.46239 1.05342,0.23764 1.11277,0.0212 1.23147,-0.20434 1.39467,-0.46367 1.64689,-0.79162 2.01783,-1.22874 2.6558,-1.8952 4.06532,-3.20582 15.01495,-12.03063 7.81906,-5.87429 8.82796,-6.34593 9.8072,-6.77412 10.69742,-7.11658 11.29089,-7.24173 12.10692,-7.49769 14.08023,-8.44796 38.88755,-23.16165 8.13063,-5.22016 6.72112,-4.57492 5.81607,-4.22322 5.19292,-4.04196 4.73298,-3.96407 4.36205,-3.94193 4.08015,-3.98524 3.88727,-4.10894 3.70923,-4.24473 3.60537,-4.46511 3.53119,-4.72835 3.51635,-5.08262 3.54602,-5.52025 3.64988,-6.10088 3.82793,-6.84199 4.13949,-7.86652 4.76265,-9.54716 6.55792,-13.69605 10.54904,-22.02759 4.98521,-9.85319 4.39172,-8.19606 4.1395,-7.26124 4.03564,-6.63672 4.00597,-6.1654 3.99113,-5.73776 3.94662,-5.28784 3.90211,-4.8603 3.88727,-4.48951 3.90211,-4.16955 3.96145,-3.90971 4.05048,-3.68744 4.19885,-3.52121 4.33238,-3.34278 4.51042,-3.19827 4.68846,-3.05082 4.86651,-2.90163 5.08906,-2.77476 5.29678,-2.63446 5.53417,-2.5039 5.81607,-2.38527 6.0683,-2.24735 6.37987,-2.12488 6.70629,-1.99925 7.10688,-1.88601 7.55199,-1.77253 8.05644,-1.66017 8.60541,-1.54402 9.18405,-1.42177 10.01492,-1.32202 10.83094,-1.20151 11.75084,-1.077426 12.89328,-0.956087 14.19893,-0.826789 15.6381,-0.686563 17.49272,-0.543521 19.6144,-0.385123 22.47793,-0.213193 17.21082,-0.03294 v 0"
           style="fill:none;stroke:#1f77b4;stroke-width:5;stroke-linecap:square;stroke-linejoin:round;stroke-miterlimit:10;stroke-dasharray:none;stroke-opacity:1"
           transform="matrix(1.3333333,0,0,-1.3333333,0,720)"
           clip-path="url(#clipPath24)" /><path
           id="path25"
           d="m 121.53,320.64101 83.81373,-0.33887 54.34761,-0.41788 34.71838,-0.46677 24.89634,-0.54314 17.98234,-0.60364 13.69447,-0.67498 10.57872,-0.73718 8.38286,-0.79838 6.88433,-0.8727 5.68254,-0.93778 4.82199,-1.01619 4.10983,-1.088 3.59053,-1.1773 3.14543,-1.26211 2.80417,-1.36203 2.52228,-1.46949 2.29972,-1.59438 2.13652,-1.75207 1.98814,-1.91839 1.88429,-2.12917 1.79527,-2.36556 1.75075,-2.68028 1.72109,-3.05043 1.72108,-3.51454 1.76559,-4.12681 1.88429,-4.98964 2.25521,-6.6429 4.73297,-14.14171 1.37984,-3.30505 1.11277,-2.12063 0.93472,-1.33442 0.81603,-0.80017 0.72701,-0.41365 0.65283,-0.12715 0.63798,0.0989 0.66766,0.33651 0.72701,0.63068 0.81603,1.0237 0.91989,1.53364 1.05342,2.21702 1.20179,3.08025 1.365,4.14419 1.5282,5.3795 1.67657,6.73739 1.81011,8.21666 2.04749,10.37655 3.70923,19.0591 0.97923,3.72892 0.8012,2.23681 0.69733,1.33546 0.65283,0.80177 0.66766,0.47848 0.77152,0.27241 1.11277,0.13105 2.90803,0.031 107.74567,-0.0435 68.73942,-0.19729 58.11619,-0.22926 29.11003,0.42445 34.13974,0.0459 252.06433,0.003 v 0"
           style="fill:none;stroke:#ff7f0e;stroke-width:5;stroke-linecap:square;stroke-linejoin:round;stroke-miterlimit:10;stroke-dasharray:none;stroke-opacity:1"
           transform="matrix(1.3333333,0,0,-1.3333333,0,720)"
           clip-path="url(#clipPath26)" /><path
           id="path27"
           d="m 121.53,307.19159 66.92932,-0.75476 50.07458,-0.78113 37.87864,-0.80007 30.11894,-0.84786 23.7539,-0.88084 19.06543,-0.9202 15.40072,-0.95787 12.47784,-0.99039 10.22264,-1.02611 8.42737,-1.06124 7.01786,-1.10062 5.90509,-1.1461 4.97036,-1.18604 4.22852,-1.2323 3.63505,-1.28681 3.13059,-1.33972 2.74483,-1.41258 2.4926,-1.53224 2.3739,-1.72387 2.43326,-2.04891 3.02673,-2.86511 4.40656,-4.16596 1.76559,-1.34626 1.37984,-0.78429 1.15728,-0.41139 1.00891,-0.13038 0.91989,0.10064 0.87537,0.31825 0.87538,0.55894 0.90505,0.84804 0.99408,1.248 1.20179,1.89253 2.07716,3.78107 2.46293,4.32022 1.73592,2.61235 1.49853,1.87178 1.39467,1.3982 1.35016,1.04692 1.35016,0.7711 1.39467,0.54259 1.48369,0.33772 1.63206,0.13959 1.85461,-0.0698 2.22554,-0.31573 2.83385,-0.63958 4.1395,-1.18406 22.83401,-6.85393 10.10394,-2.65001 11.11285,-2.68042 11.63214,-2.57334 11.92888,-2.40784 12.22561,-2.23838 12.61138,-2.08375 13.42741,-1.99305 14.64403,-1.94541 16.35028,-1.94255 18.13071,-1.92768 15.23751,-1.41122 9.61432,-0.68057 6.79531,-0.2668 5.3858,0.004 4.61428,0.22201 4.10982,0.41789 3.79825,0.60775 3.60537,0.79986 3.54603,1.01511 3.54602,1.24854 3.63504,1.51823 3.8576,1.85717 4.22852,2.28817 5.01488,2.97736 7.25525,4.59728 12.38882,7.84801 6.37987,3.75537 5.75673,3.1344 5.48965,2.73837 5.40064,2.44687 5.41547,2.21068 5.56385,2.02957 5.72705,1.85144 5.97927,1.69907 6.30569,1.56081 6.76563,1.44342 7.24042,1.31617 7.92291,1.21108 8.67959,1.09854 9.644,0.99327 10.83095,0.88933 12.44817,0.79447 14.62919,0.70228 17.5224,0.60698 21.06842,0.50113 26.57291,0.40554 36.54332,0.31681 47.44845,0.19107 v 0"
           style="fill:none;stroke:#2ca02c;stroke-width:5;stroke-linecap:square;stroke-linejoin:round;stroke-miterlimit:10;stroke-dasharray:none;stroke-opacity:1"
           transform="matrix(1.3333333,0,0,-1.3333333,0,720)"
           clip-path="url(#clipPath28)" /><path
           id="path29"
           d="m 121.53,321.74322 254.80916,0.11111 35.26734,0.19208 12.34432,0.26049 6.67661,0.3479 4.61428,0.45346 3.64988,0.57494 3.07124,0.70284 2.64097,0.82779 2.22554,0.92455 1.88429,1.01946 1.61722,1.12669 1.43918,1.27574 1.35016,1.50045 1.33532,1.82404 1.42435,2.33621 1.60238,3.07391 2.06233,4.47809 5.01488,11.08793 1.73592,3.18604 1.54304,2.38435 1.45402,1.84815 1.4095,1.43797 1.39467,1.10954 1.40951,0.84132 1.46885,0.61917 1.57272,0.41919 1.72108,0.22444 1.94363,0.0236 2.27005,-0.20191 2.78934,-0.48215 3.64988,-0.87065 5.62319,-1.59586 19.21381,-5.58842 9.16921,-2.36179 9.33242,-2.17251 9.88138,-2.0699 10.6084,-1.9918 11.54312,-1.93606 12.71523,-1.90004 14.00605,-1.86434 16.23158,-1.931 21.42451,-2.30698 31.86969,-3.43636 12.37398,-1.5812 10.94965,-1.62295 11.51344,-1.93939 30.74209,-5.33141 7.78938,-1.02127 7.35911,-0.74248 7.55198,-0.53777 8.44221,-0.37426 10.53421,-0.23487 16.39479,-0.11522 49.36241,-0.0231 178.1765,-5e-5 v 0"
           style="fill:none;stroke:#d62728;stroke-width:5;stroke-linecap:square;stroke-linejoin:round;stroke-miterlimit:10;stroke-dasharray:none;stroke-opacity:1"
           transform="matrix(1.3333333,0,0,-1.3333333,0,720)"
           clip-path="url(#clipPath30)" /><path
           id="path31"
           d="m 121.53,337.11217 63.10139,0.74435 50.05975,0.80186 38.11603,0.82031 30.32666,0.86562 23.82808,0.89325 18.99125,0.92513 15.17816,0.95199 12.43334,0.9977 9.92589,1.01199 8.13063,1.04471 6.69145,1.07726 5.54901,1.11239 4.64395,1.1516 3.94662,1.20225 3.41249,1.26798 2.99706,1.34744 2.70031,1.45557 2.50744,1.60447 2.38874,1.7927 2.40359,2.08648 2.53711,2.50559 2.90803,3.19844 3.88727,4.63466 4.95553,6.24904 2.70032,3.73037 1.94364,3.05911 1.66173,3.03081 1.58755,3.36655 1.76559,4.29644 5.23743,13.13655 2.16619,4.59821 2.16619,4.08251 2.2107,3.69714 2.3294,3.46447 2.53711,3.37161 2.83385,3.39211 3.30863,3.6056 3.96146,3.9789 4.80716,4.50381 5.56384,4.90341 5.89026,4.89692 5.89025,4.61123 5.75673,4.22745 5.63802,3.86626 5.53417,3.52684 5.47482,3.22583 5.43031,2.9416 5.40064,2.673 5.40064,2.42468 5.37096,2.16935 5.41547,1.94767 5.43031,1.71626 5.43031,1.48393 5.45999,1.26221 5.50449,1.0431 5.48966,0.81395 5.5045,0.59116 5.47482,0.36514 5.47482,0.14184 5.41547,-0.0824 5.32645,-0.30225 5.2226,-0.51701 5.11873,-0.72899 4.97037,-0.93131 4.79232,-1.12181 4.64396,-1.31463 4.45107,-1.4901 4.27303,-1.66392 4.09499,-1.83185 3.94662,-2.00872 3.79825,-2.18241 3.67955,-2.37078 3.5757,-2.56836 3.51635,-2.80124 3.457,-3.0391 3.457,-3.33736 3.48668,-3.67881 3.54602,-4.06719 3.69439,-4.57971 3.94662,-5.25417 4.36205,-6.18757 5.25227,-7.85573 9.65883,-14.95007 6.97335,-10.56867 5.13357,-7.38206 4.62912,-6.27322 4.40656,-5.60168 4.28787,-5.09564 4.22852,-4.68199 4.15434,-4.27084 4.10982,-3.90952 4.10983,-3.6051 4.15433,-3.34918 4.21369,-3.11281 4.33238,-2.92406 4.46591,-2.74496 4.61428,-2.5745 4.79232,-2.41859 5.00004,-2.27325 5.22259,-2.12947 5.48966,-1.99733 5.7864,-1.86786 6.15732,-1.75179 6.55791,-1.6322 7.04754,-1.5218 7.5965,-1.40993 8.279,-1.30683 9.10986,-1.20769 10.0891,-1.10732 11.26122,-1.00686 12.84877,-0.91742 14.61436,-0.81448 16.97343,-0.71913 20.66782,-0.64068 25.32661,-0.54547 31.39491,-0.44029 31.11301,-0.27439 v 0"
           style="fill:none;stroke:#9467bd;stroke-width:5;stroke-linecap:square;stroke-linejoin:round;stroke-miterlimit:10;stroke-dasharray:none;stroke-opacity:1"
           transform="matrix(1.3333333,0,0,-1.3333333,0,720)"
           clip-path="url(#clipPath32)" /><path
           id="path33"
           d="m 121.53,321.72044 890.2,4.9e-4 v 0"
           style="fill:none;stroke:#8c564b;stroke-width:5;stroke-linecap:square;stroke-linejoin:round;stroke-miterlimit:10;stroke-dasharray:none;stroke-opacity:1"
           transform="matrix(1.3333333,0,0,-1.3333333,0,720)"
           clip-path="url(#clipPath34)" /><path
           id="path35"
           d="m 121.53,321.72083 307.22798,-0.11091 3.76857,-0.21726 2.0475,-0.32615 1.45401,-0.44934 1.14245,-0.5812 0.97923,-0.74663 0.89022,-0.96307 0.8457,-1.2552 0.81603,-1.6227 0.81603,-2.13835 0.81603,-2.78197 0.84571,-3.71607 0.86054,-4.82943 0.89021,-6.3119 0.93473,-8.29578 0.97923,-10.75914 1.05343,-14.1359 1.18695,-19.10533 1.63206,-30.33698 1.63206,-29.17837 0.80119,-10.5606 0.59348,-5.19927 0.45994,-2.35949 0.35609,-0.87428 0.25223,-0.16801 0.20771,0.10915 0.28191,0.4556 0.40059,1.13267 0.63799,2.56408 3.7389,16.26119 1.27598,4.10701 1.23146,3.24057 1.18695,2.51924 1.15728,1.95279 1.14245,1.50381 1.1276,1.12936 1.14244,0.83891 1.18696,0.59906 1.26113,0.38649 1.37984,0.18665 1.55787,-0.0181 1.85462,-0.25215 2.34423,-0.55586 3.36798,-1.04898 14.9111,-4.88357 5.84574,-1.55656 6.12765,-1.39894 6.40954,-1.23487 6.64694,-1.0547 6.78047,-0.85055 6.78047,-0.62707 6.72112,-0.40038 6.67661,-0.17647 6.61727,0.0474 6.5134,0.26862 6.40955,0.48616 6.29085,0.69927 6.15732,0.90727 6.00895,1.10966 5.81607,1.29884 5.60835,1.47792 5.43031,1.66057 5.19292,1.82019 4.95553,1.97176 4.73298,2.12229 4.48075,2.25076 4.28787,2.40147 4.08015,2.53831 3.91694,2.69795 3.76858,2.8664 3.63504,3.04514 3.53119,3.24975 3.44216,3.47083 3.39766,3.74334 3.38281,4.06056 3.41249,4.44789 3.48668,4.91442 3.66471,5.55717 3.99113,6.46686 4.76265,8.16212 14.48083,25.13419 3.457,5.36064 3.05641,4.34057 2.81901,3.62576 2.67065,3.0797 2.59646,2.65865 2.56678,2.31189 2.58162,2.02762 2.65581,1.8043 2.80418,1.63566 3.02673,1.50627 3.32347,1.40388 3.64988,1.29921 3.8576,1.13798 3.91694,0.9251 3.99113,0.71367 4.28787,0.53585 4.94069,0.38564 6.3502,0.26071 9.59948,0.14989 21.15744,0.0526 228.77038,0.002 v 0"
           style="fill:none;stroke:#e377c2;stroke-width:5;stroke-linecap:square;stroke-linejoin:round;stroke-miterlimit:10;stroke-dasharray:none;stroke-opacity:1"
           transform="matrix(1.3333333,0,0,-1.3333333,0,720)"
           clip-path="url(#clipPath36)" /><path
           id="path37"
           d="M 77.02,76.52 V 510.74016"
           style="fill:none;stroke:#000000;stroke-width:0.8;stroke-linecap:square;stroke-linejoin:miter;stroke-miterlimit:10;stroke-dasharray:none;stroke-opacity:1"
           transform="matrix(1.3333333,0,0,-1.3333333,0,720)" /><path
           id="path38"
           d="m 77.02,76.52 h 979.22"
           style="fill:none;stroke:#000000;stroke-width:0.8;stroke-linecap:square;stroke-linejoin:miter;stroke-miterlimit:10;stroke-dasharray:none;stroke-opacity:1"
           transform="matrix(1.3333333,0,0,-1.3333333,0,720)" /><path
           id="path39"
           d="m 1203.0552,363.97169 h 185.6827 c 3.3131,0 4.9696,-1.95625 4.9696,-5.86873 V 59.494141 c 0,-3.912478 -1.6565,-5.868723 -4.9696,-5.868723 h -185.6827 c -3.3131,0 -4.9696,1.956245 -4.9696,5.868723 V 358.10296 c 0,3.91248 1.6565,5.86873 4.9696,5.86873 z"
           style="fill:#ffffff;fill-opacity:0.8;fill-rule:nonzero;stroke:#cccccc;stroke-width:1.22738;stroke-linecap:butt;stroke-linejoin:miter;stroke-miterlimit:10;stroke-dasharray:none;stroke-opacity:0.8" /><path
           id="path40"
           d="m 1211.514,76.162384 h 11.4342 11.4342"
           style="fill:none;stroke:#1f77b4;stroke-width:4.18278;stroke-linecap:square;stroke-linejoin:round;stroke-miterlimit:10;stroke-dasharray:none;stroke-opacity:1" /><text
           id="text40"
           xml:space="preserve"
           transform="matrix(1.3333333,0,0,1.3333333,1256.5867,87.704791)"><tspan
             style="font-variant:normal;font-weight:normal;font-size:22px;font-family:Arial;writing-mode:lr-tb;fill:#000000;fill-opacity:1;fill-rule:nonzero;stroke:none"
             x="0 15.048 22.044001 30.624001 52.051998 67.099998"
             y="0"
             id="tspan40">V (mV)</tspan></text><path
           id="path41"
           d="m 1211.514,119.65014 h 11.4342 11.4342"
           style="fill:none;stroke:#ff7f0e;stroke-width:4.18278;stroke-linecap:square;stroke-linejoin:round;stroke-miterlimit:10;stroke-dasharray:none;stroke-opacity:1" /><text
           id="text41"
           xml:space="preserve"
           transform="matrix(1.3333333,0,0,1.3333333,1256.5867,130.35062)"><tspan
             style="font-style:italic;font-variant:normal;font-weight:normal;font-size:22px;font-family:Arial;writing-mode:lr-tb;fill:#000000;fill-opacity:1;fill-rule:nonzero;stroke:none"
             x="0"
             y="0"
             id="tspan41">I</tspan><tspan
             style="font-style:italic;font-variant:normal;font-weight:normal;font-size:15.4px;font-family:Arial;writing-mode:lr-tb;fill:#000000;fill-opacity:1;fill-rule:nonzero;stroke:none"
             x="6.4882812 18.008204 27.445215"
             y="3.609375"
             id="tspan42">NaT</tspan><tspan
             style="font-variant:normal;font-weight:normal;font-size:22px;font-family:Arial;writing-mode:lr-tb;fill:#000000;fill-opacity:1;fill-rule:nonzero;stroke:none"
             x="44.597195"
             y="5.5511151e-17"
             id="tspan43">(</tspan><tspan
             style="font-style:italic;font-variant:normal;font-weight:normal;font-size:22px;font-family:Arial;writing-mode:lr-tb;fill:#000000;fill-opacity:1;fill-rule:nonzero;stroke:none"
             x="53.180202 67.123558"
             id="tspan44"
             y="5.5511151e-17">nA</tspan><tspan
             style="font-variant:normal;font-weight:normal;font-size:22px;font-family:Arial;writing-mode:lr-tb;fill:#000000;fill-opacity:1;fill-rule:nonzero;stroke:none"
             x="82.173363"
             y="5.5511151e-17"
             id="tspan45">)</tspan></text><path
           id="path45"
           d="m 1211.514,163.13788 h 11.4342 11.4342"
           style="fill:none;stroke:#2ca02c;stroke-width:4.18278;stroke-linecap:square;stroke-linejoin:round;stroke-miterlimit:10;stroke-dasharray:none;stroke-opacity:1" /><text
           id="text45"
           xml:space="preserve"
           transform="matrix(1.3333333,0,0,1.3333333,1256.5867,173.41312)"><tspan
             style="font-style:italic;font-variant:normal;font-weight:normal;font-size:22px;font-family:Arial;writing-mode:lr-tb;fill:#000000;fill-opacity:1;fill-rule:nonzero;stroke:none"
             x="0"
             y="0"
             id="tspan46">I</tspan><tspan
             style="font-style:italic;font-variant:normal;font-weight:normal;font-size:15.4px;font-family:Arial;writing-mode:lr-tb;fill:#000000;fill-opacity:1;fill-rule:nonzero;stroke:none"
             x="6.4882812 18.008204 27.445215"
             y="3.609375"
             id="tspan47">NaP</tspan><tspan
             style="font-variant:normal;font-weight:normal;font-size:22px;font-family:Arial;writing-mode:lr-tb;fill:#000000;fill-opacity:1;fill-rule:nonzero;stroke:none"
             x="44.476883"
             y="5.5511151e-17"
             id="tspan48">(</tspan><tspan
             style="font-style:italic;font-variant:normal;font-weight:normal;font-size:22px;font-family:Arial;writing-mode:lr-tb;fill:#000000;fill-opacity:1;fill-rule:nonzero;stroke:none"
             x="53.059891 67.00325"
             y="5.5511151e-17"
             id="tspan49">nA</tspan><tspan
             style="font-variant:normal;font-weight:normal;font-size:22px;font-family:Arial;writing-mode:lr-tb;fill:#000000;fill-opacity:1;fill-rule:nonzero;stroke:none"
             x="82.053055"
             y="5.5511151e-17"
             id="tspan50">)</tspan></text><path
           id="path50"
           d="m 1211.514,206.62564 h 11.4342 11.4342"
           style="fill:none;stroke:#d62728;stroke-width:4.18278;stroke-linecap:square;stroke-linejoin:round;stroke-miterlimit:10;stroke-dasharray:none;stroke-opacity:1" /><text
           id="text50"
           xml:space="preserve"
           transform="matrix(1.3333333,0,0,1.3333333,1256.5867,216.47562)"><tspan
             style="font-style:italic;font-variant:normal;font-weight:normal;font-size:22px;font-family:Arial;writing-mode:lr-tb;fill:#000000;fill-opacity:1;fill-rule:nonzero;stroke:none"
             x="0"
             y="0"
             id="tspan51">I</tspan><tspan
             style="font-style:italic;font-variant:normal;font-weight:normal;font-size:15.4px;font-family:Arial;writing-mode:lr-tb;fill:#000000;fill-opacity:1;fill-rule:nonzero;stroke:none"
             x="6.4882812"
             y="3.609375"
             id="tspan52">A</tspan><tspan
             style="font-variant:normal;font-weight:normal;font-size:22px;font-family:Arial;writing-mode:lr-tb;fill:#000000;fill-opacity:1;fill-rule:nonzero;stroke:none"
             x="24.76819"
             y="5.5511151e-17"
             id="tspan53">(</tspan><tspan
             style="font-style:italic;font-variant:normal;font-weight:normal;font-size:22px;font-family:Arial;writing-mode:lr-tb;fill:#000000;fill-opacity:1;fill-rule:nonzero;stroke:none"
             x="33.351196 47.294556"
             y="5.5511151e-17"
             id="tspan54">nA</tspan><tspan
             style="font-variant:normal;font-weight:normal;font-size:22px;font-family:Arial;writing-mode:lr-tb;fill:#000000;fill-opacity:1;fill-rule:nonzero;stroke:none"
             x="62.34436"
             y="5.5511151e-17"
             id="tspan55">)</tspan></text><path
           id="path55"
           d="m 1211.514,250.11338 h 11.4342 11.4342"
           style="fill:none;stroke:#9467bd;stroke-width:4.18278;stroke-linecap:square;stroke-linejoin:round;stroke-miterlimit:10;stroke-dasharray:none;stroke-opacity:1" /><text
           id="text55"
           xml:space="preserve"
           transform="matrix(1.3333333,0,0,1.3333333,1256.5867,259.53812)"><tspan
             style="font-style:italic;font-variant:normal;font-weight:normal;font-size:22px;font-family:Arial;writing-mode:lr-tb;fill:#000000;fill-opacity:1;fill-rule:nonzero;stroke:none"
             x="0"
             y="0"
             id="tspan56">I</tspan><tspan
             style="font-style:italic;font-variant:normal;font-weight:normal;font-size:15.4px;font-family:Arial;writing-mode:lr-tb;fill:#000000;fill-opacity:1;fill-rule:nonzero;stroke:none"
             x="6.4882812"
             y="3.609375"
             id="tspan57">D</tspan><tspan
             style="font-variant:normal;font-weight:normal;font-size:22px;font-family:Arial;writing-mode:lr-tb;fill:#000000;fill-opacity:1;fill-rule:nonzero;stroke:none"
             x="26.091627"
             y="5.5511151e-17"
             id="tspan58">(</tspan><tspan
             style="font-style:italic;font-variant:normal;font-weight:normal;font-size:22px;font-family:Arial;writing-mode:lr-tb;fill:#000000;fill-opacity:1;fill-rule:nonzero;stroke:none"
             x="34.674637 48.617996"
             y="5.5511151e-17"
             id="tspan59">nA</tspan><tspan
             style="font-variant:normal;font-weight:normal;font-size:22px;font-family:Arial;writing-mode:lr-tb;fill:#000000;fill-opacity:1;fill-rule:nonzero;stroke:none"
             x="63.667801"
             y="5.5511151e-17"
             id="tspan60">)</tspan></text><path
           id="path60"
           d="m 1211.514,293.60114 h 11.4342 11.4342"
           style="fill:none;stroke:#8c564b;stroke-width:4.18278;stroke-linecap:square;stroke-linejoin:round;stroke-miterlimit:10;stroke-dasharray:none;stroke-opacity:1" /><text
           id="text60"
           xml:space="preserve"
           transform="matrix(1.3333333,0,0,1.3333333,1256.5867,302.60062)"><tspan
             style="font-style:italic;font-variant:normal;font-weight:normal;font-size:22px;font-family:Arial;writing-mode:lr-tb;fill:#000000;fill-opacity:1;fill-rule:nonzero;stroke:none"
             x="0"
             y="0"
             id="tspan61">I</tspan><tspan
             style="font-style:italic;font-variant:normal;font-weight:normal;font-size:15.4px;font-family:Arial;writing-mode:lr-tb;fill:#000000;fill-opacity:1;fill-rule:nonzero;stroke:none"
             x="6.4882812 15.068067 25.60293"
             y="3.609375"
             id="tspan62">LVA</tspan><tspan
             style="font-variant:normal;font-weight:normal;font-size:22px;font-family:Arial;writing-mode:lr-tb;fill:#000000;fill-opacity:1;fill-rule:nonzero;stroke:none"
             x="43.882839"
             y="5.5511151e-17"
             id="tspan63">(</tspan><tspan
             style="font-style:italic;font-variant:normal;font-weight:normal;font-size:22px;font-family:Arial;writing-mode:lr-tb;fill:#000000;fill-opacity:1;fill-rule:nonzero;stroke:none"
             x="52.465847 66.409203"
             y="5.5511151e-17"
             id="tspan64">nA</tspan><tspan
             style="font-variant:normal;font-weight:normal;font-size:22px;font-family:Arial;writing-mode:lr-tb;fill:#000000;fill-opacity:1;fill-rule:nonzero;stroke:none"
             x="81.459007"
             y="5.5511151e-17"
             id="tspan65">)</tspan></text><path
           id="path65"
           d="m 1211.514,337.08888 h 11.4342 11.4342"
           style="fill:none;stroke:#e377c2;stroke-width:4.18278;stroke-linecap:square;stroke-linejoin:round;stroke-miterlimit:10;stroke-dasharray:none;stroke-opacity:1" /><text
           id="text65"
           xml:space="preserve"
           transform="matrix(1.3333333,0,0,1.3333333,1256.5867,345.66312)"><tspan
             style="font-style:italic;font-variant:normal;font-weight:normal;font-size:22px;font-family:Arial;writing-mode:lr-tb;fill:#000000;fill-opacity:1;fill-rule:nonzero;stroke:none"
             x="0"
             y="0"
             id="tspan66">I</tspan><tspan
             style="font-style:italic;font-variant:normal;font-weight:normal;font-size:15.4px;font-family:Arial;writing-mode:lr-tb;fill:#000000;fill-opacity:1;fill-rule:nonzero;stroke:none"
             x="6.4882812 18.068359 28.603222"
             y="3.609375"
             id="tspan67">HVA</tspan><tspan
             style="font-variant:normal;font-weight:normal;font-size:22px;font-family:Arial;writing-mode:lr-tb;fill:#000000;fill-opacity:1;fill-rule:nonzero;stroke:none"
             x="46.883133"
             y="5.5511151e-17"
             id="tspan68">(</tspan><tspan
             style="font-style:italic;font-variant:normal;font-weight:normal;font-size:22px;font-family:Arial;writing-mode:lr-tb;fill:#000000;fill-opacity:1;fill-rule:nonzero;stroke:none"
             x="55.466141 69.4095"
             y="5.5511151e-17"
             id="tspan69">nA</tspan><tspan
             style="font-variant:normal;font-weight:normal;font-size:22px;font-family:Arial;writing-mode:lr-tb;fill:#000000;fill-opacity:1;fill-rule:nonzero;stroke:none"
             x="84.459305"
             y="5.5511151e-17"
             id="tspan70">)</tspan></text></g></g></g></svg>
